# xmcd
#
# Track frame offsets: 
#        150
#        13305
#        30525
#        42784
#        58768
#        69039
#        85323
#        98506
#        115874
#        130540
#
# Disc length: 1936 seconds
#
# Revision: 0
# Processed by: cddbd v1.5.2PL0 Copyright (c) Steve Scherf et al.
# Submitted via: ExactAudioCopy v0.95b4
#
DISCID=73078e0a
DTITLE=The Back Behind the Barn Boys - a buncha songs
DYEAR=1987
DGENRE=Classic Country
TTITLE0=Wounded Heart
TTITLE1=I'll Still Be Waltzing With You
TTITLE2=Please Let It Show
TTITLE3=I'm On Fire
TTITLE4=Poor Man Lazrus
TTITLE5=Chains
TTITLE6=My Hometown
TTITLE7=The Beat of My Heart
TTITLE8=My Heart Skips a Beat
TTITLE9=Cowboy of the Highway
EXTD=
EXTT0=
EXTT1=
EXTT2=
EXTT3=
EXTT4=
EXTT5=
EXTT6=
EXTT7=
EXTT8=
EXTT9=
PLAYORDER=
